<mxfile host="Electron" modified="2024-04-30T17:24:11.149Z" agent="Mozilla/5.0 (Windows NT 10.0; Win64; x64) AppleWebKit/537.36 (KHTML, like Gecko) draw.io/24.2.5 Chrome/120.0.6099.109 Electron/28.1.0 Safari/537.36" etag="rNSCKYbSoMAPHMJk8AGR" version="24.2.5" type="device" pages="2">
  <diagram name="Page-1" id="2YBvvXClWsGukQMizWep">
    <mxGraphModel dx="1420" dy="822" grid="1" gridSize="10" guides="1" tooltips="1" connect="1" arrows="1" fold="1" page="1" pageScale="1" pageWidth="850" pageHeight="1100" math="0" shadow="0">
      <root>
        <mxCell id="0" />
        <mxCell id="1" parent="0" />
        <mxCell id="aM9ryv3xv72pqoxQDRHE-1" value="VIBAN" style="shape=umlLifeline;perimeter=lifelinePerimeter;whiteSpace=wrap;html=1;container=0;dropTarget=0;collapsible=0;recursiveResize=0;outlineConnect=0;portConstraint=eastwest;newEdgeStyle={&quot;edgeStyle&quot;:&quot;elbowEdgeStyle&quot;,&quot;elbow&quot;:&quot;vertical&quot;,&quot;curved&quot;:0,&quot;rounded&quot;:0};" parent="1" vertex="1">
          <mxGeometry x="391" y="40" width="100" height="300" as="geometry" />
        </mxCell>
        <mxCell id="aM9ryv3xv72pqoxQDRHE-2" value="" style="html=1;points=[];perimeter=orthogonalPerimeter;outlineConnect=0;targetShapes=umlLifeline;portConstraint=eastwest;newEdgeStyle={&quot;edgeStyle&quot;:&quot;elbowEdgeStyle&quot;,&quot;elbow&quot;:&quot;vertical&quot;,&quot;curved&quot;:0,&quot;rounded&quot;:0};" parent="aM9ryv3xv72pqoxQDRHE-1" vertex="1">
          <mxGeometry x="45" y="70" width="10" height="80" as="geometry" />
        </mxCell>
        <mxCell id="aM9ryv3xv72pqoxQDRHE-5" value="PreProcessor" style="shape=umlLifeline;perimeter=lifelinePerimeter;whiteSpace=wrap;html=1;container=0;dropTarget=0;collapsible=0;recursiveResize=0;outlineConnect=0;portConstraint=eastwest;newEdgeStyle={&quot;edgeStyle&quot;:&quot;elbowEdgeStyle&quot;,&quot;elbow&quot;:&quot;vertical&quot;,&quot;curved&quot;:0,&quot;rounded&quot;:0};" parent="1" vertex="1">
          <mxGeometry x="571" y="40" width="100" height="420" as="geometry" />
        </mxCell>
        <mxCell id="aM9ryv3xv72pqoxQDRHE-6" value="" style="html=1;points=[];perimeter=orthogonalPerimeter;outlineConnect=0;targetShapes=umlLifeline;portConstraint=eastwest;newEdgeStyle={&quot;edgeStyle&quot;:&quot;elbowEdgeStyle&quot;,&quot;elbow&quot;:&quot;vertical&quot;,&quot;curved&quot;:0,&quot;rounded&quot;:0};" parent="aM9ryv3xv72pqoxQDRHE-5" vertex="1">
          <mxGeometry x="45" y="80" width="10" height="300" as="geometry" />
        </mxCell>
        <mxCell id="jVAV2KewldyQMuadTdJA-16" value="" style="edgeStyle=orthogonalEdgeStyle;html=1;align=left;spacingLeft=2;endArrow=block;rounded=0;entryX=-0.24;entryY=0.4;entryDx=0;entryDy=0;entryPerimeter=0;" edge="1" parent="aM9ryv3xv72pqoxQDRHE-5" source="jVAV2KewldyQMuadTdJA-18">
          <mxGeometry x="0.0142" y="14" relative="1" as="geometry">
            <mxPoint x="55" y="160" as="sourcePoint" />
            <Array as="points">
              <mxPoint x="100" y="160" />
              <mxPoint x="100" y="184" />
            </Array>
            <mxPoint as="offset" />
            <mxPoint x="56.59999999999991" y="184" as="targetPoint" />
          </mxGeometry>
        </mxCell>
        <mxCell id="jVAV2KewldyQMuadTdJA-17" value="define payment type" style="edgeLabel;html=1;align=center;verticalAlign=middle;resizable=0;points=[];" vertex="1" connectable="0" parent="jVAV2KewldyQMuadTdJA-16">
          <mxGeometry x="0.4706" y="-6" relative="1" as="geometry">
            <mxPoint x="38" as="offset" />
          </mxGeometry>
        </mxCell>
        <mxCell id="jVAV2KewldyQMuadTdJA-18" value="&lt;span style=&quot;color: rgba(0, 0, 0, 0); font-family: monospace; font-size: 0px; text-align: start;&quot;&gt;%3CmxGraphModel%3E%3Croot%3E%3CmxCell%20id%3D%220%22%2F%3E%3CmxCell%20id%3D%221%22%20parent%3D%220%22%2F%3E%3CmxCell%20id%3D%222%22%20value%3D%22move%20to%20ivr%20stage%26amp%3Bnbsp%3B%22%20style%3D%22edgeStyle%3DorthogonalEdgeStyle%3Bhtml%3D1%3Balign%3Dleft%3BspacingLeft%3D2%3BendArrow%3Dblock%3Brounded%3D0%3BentryX%3D-0.24%3BentryY%3D0.4%3BentryDx%3D0%3BentryDy%3D0%3BentryPerimeter%3D0%3B%22%20edge%3D%221%22%20parent%3D%221%22%3E%3CmxGeometry%20x%3D%220.0142%22%20y%3D%2214%22%20relative%3D%221%22%20as%3D%22geometry%22%3E%3CmxPoint%20x%3D%22135%22%20y%3D%22260%22%20as%3D%22sourcePoint%22%2F%3E%3CArray%20as%3D%22points%22%3E%3CmxPoint%20x%3D%22180%22%20y%3D%22260%22%2F%3E%3CmxPoint%20x%3D%22180%22%20y%3D%22284%22%2F%3E%3C%2FArray%3E%3CmxPoint%20as%3D%22offset%22%2F%3E%3CmxPoint%20x%3D%22136.5999999999999%22%20y%3D%22284%22%20as%3D%22targetPoint%22%2F%3E%3C%2FmxGeometry%3E%3C%2FmxCell%3E%3C%2Froot%3E%3C%2FmxGraphModel%3E&lt;/span&gt;" style="html=1;points=[];perimeter=orthogonalPerimeter;outlineConnect=0;targetShapes=umlLifeline;portConstraint=eastwest;newEdgeStyle={&quot;edgeStyle&quot;:&quot;elbowEdgeStyle&quot;,&quot;elbow&quot;:&quot;vertical&quot;,&quot;curved&quot;:0,&quot;rounded&quot;:0};" vertex="1" parent="aM9ryv3xv72pqoxQDRHE-5">
          <mxGeometry x="50" y="170" width="10" height="30" as="geometry" />
        </mxCell>
        <mxCell id="jVAV2KewldyQMuadTdJA-2" value="PTM" style="shape=umlLifeline;perimeter=lifelinePerimeter;whiteSpace=wrap;html=1;container=0;dropTarget=0;collapsible=0;recursiveResize=0;outlineConnect=0;portConstraint=eastwest;newEdgeStyle={&quot;edgeStyle&quot;:&quot;elbowEdgeStyle&quot;,&quot;elbow&quot;:&quot;vertical&quot;,&quot;curved&quot;:0,&quot;rounded&quot;:0};" vertex="1" parent="1">
          <mxGeometry x="861" y="40" width="100" height="440" as="geometry" />
        </mxCell>
        <mxCell id="jVAV2KewldyQMuadTdJA-3" value="" style="html=1;points=[];perimeter=orthogonalPerimeter;outlineConnect=0;targetShapes=umlLifeline;portConstraint=eastwest;newEdgeStyle={&quot;edgeStyle&quot;:&quot;elbowEdgeStyle&quot;,&quot;elbow&quot;:&quot;vertical&quot;,&quot;curved&quot;:0,&quot;rounded&quot;:0};" vertex="1" parent="jVAV2KewldyQMuadTdJA-2">
          <mxGeometry x="45" y="80" width="10" height="260" as="geometry" />
        </mxCell>
        <mxCell id="jVAV2KewldyQMuadTdJA-4" value="Dispature" style="shape=umlLifeline;perimeter=lifelinePerimeter;whiteSpace=wrap;html=1;container=0;dropTarget=0;collapsible=0;recursiveResize=0;outlineConnect=0;portConstraint=eastwest;newEdgeStyle={&quot;edgeStyle&quot;:&quot;elbowEdgeStyle&quot;,&quot;elbow&quot;:&quot;vertical&quot;,&quot;curved&quot;:0,&quot;rounded&quot;:0};" vertex="1" parent="1">
          <mxGeometry x="1001" y="40" width="100" height="380" as="geometry" />
        </mxCell>
        <mxCell id="jVAV2KewldyQMuadTdJA-5" value="" style="html=1;points=[];perimeter=orthogonalPerimeter;outlineConnect=0;targetShapes=umlLifeline;portConstraint=eastwest;newEdgeStyle={&quot;edgeStyle&quot;:&quot;elbowEdgeStyle&quot;,&quot;elbow&quot;:&quot;vertical&quot;,&quot;curved&quot;:0,&quot;rounded&quot;:0};" vertex="1" parent="jVAV2KewldyQMuadTdJA-4">
          <mxGeometry x="45" y="220" width="10" height="160" as="geometry" />
        </mxCell>
        <mxCell id="jVAV2KewldyQMuadTdJA-6" value="Core System" style="shape=umlLifeline;perimeter=lifelinePerimeter;whiteSpace=wrap;html=1;container=0;dropTarget=0;collapsible=0;recursiveResize=0;outlineConnect=0;portConstraint=eastwest;newEdgeStyle={&quot;edgeStyle&quot;:&quot;elbowEdgeStyle&quot;,&quot;elbow&quot;:&quot;vertical&quot;,&quot;curved&quot;:0,&quot;rounded&quot;:0};" vertex="1" parent="1">
          <mxGeometry x="1201" y="40" width="100" height="300" as="geometry" />
        </mxCell>
        <mxCell id="jVAV2KewldyQMuadTdJA-8" style="edgeStyle=elbowEdgeStyle;rounded=0;orthogonalLoop=1;jettySize=auto;html=1;elbow=vertical;curved=0;" edge="1" parent="1">
          <mxGeometry relative="1" as="geometry">
            <mxPoint x="446" y="147" as="sourcePoint" />
            <mxPoint x="620.5" y="147" as="targetPoint" />
          </mxGeometry>
        </mxCell>
        <mxCell id="jVAV2KewldyQMuadTdJA-9" value="virtual IBAN Notification handler&amp;nbsp;" style="edgeLabel;html=1;align=center;verticalAlign=middle;resizable=0;points=[];" vertex="1" connectable="0" parent="jVAV2KewldyQMuadTdJA-8">
          <mxGeometry x="-0.2894" y="9" relative="1" as="geometry">
            <mxPoint x="23" as="offset" />
          </mxGeometry>
        </mxCell>
        <mxCell id="jVAV2KewldyQMuadTdJA-13" style="edgeStyle=elbowEdgeStyle;rounded=0;orthogonalLoop=1;jettySize=auto;html=1;elbow=vertical;curved=0;" edge="1" parent="1">
          <mxGeometry relative="1" as="geometry">
            <mxPoint x="626" y="167" as="sourcePoint" />
            <mxPoint x="910.5" y="167" as="targetPoint" />
          </mxGeometry>
        </mxCell>
        <mxCell id="jVAV2KewldyQMuadTdJA-14" value="&lt;span style=&quot;font-family: &amp;quot;JetBrains Mono&amp;quot;, monospace; font-size: 13.0667px; text-align: left; white-space-collapse: preserve;&quot;&gt;calculateEarlySettlementsPayment&lt;/span&gt;" style="edgeLabel;html=1;align=center;verticalAlign=middle;resizable=0;points=[];" vertex="1" connectable="0" parent="jVAV2KewldyQMuadTdJA-13">
          <mxGeometry x="-0.6907" y="-1" relative="1" as="geometry">
            <mxPoint x="91" y="-18" as="offset" />
          </mxGeometry>
        </mxCell>
        <mxCell id="jVAV2KewldyQMuadTdJA-15" style="edgeStyle=elbowEdgeStyle;rounded=0;orthogonalLoop=1;jettySize=auto;html=1;elbow=vertical;curved=0;" edge="1" parent="1">
          <mxGeometry relative="1" as="geometry">
            <mxPoint x="906" y="187" as="sourcePoint" />
            <mxPoint x="620.5" y="187" as="targetPoint" />
          </mxGeometry>
        </mxCell>
        <mxCell id="jVAV2KewldyQMuadTdJA-19" style="edgeStyle=elbowEdgeStyle;rounded=0;orthogonalLoop=1;jettySize=auto;html=1;elbow=vertical;curved=0;" edge="1" parent="1">
          <mxGeometry relative="1" as="geometry">
            <mxPoint x="626" y="263" as="sourcePoint" />
            <mxPoint x="910.5" y="263" as="targetPoint" />
          </mxGeometry>
        </mxCell>
        <mxCell id="jVAV2KewldyQMuadTdJA-20" value="settle payment" style="edgeLabel;html=1;align=center;verticalAlign=middle;resizable=0;points=[];" vertex="1" connectable="0" parent="jVAV2KewldyQMuadTdJA-19">
          <mxGeometry x="-0.4095" y="3" relative="1" as="geometry">
            <mxPoint as="offset" />
          </mxGeometry>
        </mxCell>
        <mxCell id="jVAV2KewldyQMuadTdJA-21" style="edgeStyle=elbowEdgeStyle;rounded=0;orthogonalLoop=1;jettySize=auto;html=1;elbow=vertical;curved=0;" edge="1" parent="1">
          <mxGeometry relative="1" as="geometry">
            <mxPoint x="916" y="277" as="sourcePoint" />
            <mxPoint x="1050.5" y="277" as="targetPoint" />
          </mxGeometry>
        </mxCell>
        <mxCell id="jVAV2KewldyQMuadTdJA-22" style="edgeStyle=elbowEdgeStyle;rounded=0;orthogonalLoop=1;jettySize=auto;html=1;elbow=vertical;curved=0;" edge="1" parent="1" source="jVAV2KewldyQMuadTdJA-7">
          <mxGeometry relative="1" as="geometry">
            <mxPoint x="1056" y="299" as="sourcePoint" />
            <mxPoint x="1250.5" y="299" as="targetPoint" />
          </mxGeometry>
        </mxCell>
        <mxCell id="jVAV2KewldyQMuadTdJA-23" value="" style="edgeStyle=elbowEdgeStyle;rounded=0;orthogonalLoop=1;jettySize=auto;html=1;elbow=vertical;curved=0;" edge="1" parent="1" target="jVAV2KewldyQMuadTdJA-7">
          <mxGeometry relative="1" as="geometry">
            <mxPoint x="1056" y="299" as="sourcePoint" />
            <mxPoint x="1250.5" y="299" as="targetPoint" />
          </mxGeometry>
        </mxCell>
        <mxCell id="sOdplfueF10rCjUXzpc5-1" style="edgeStyle=elbowEdgeStyle;rounded=0;orthogonalLoop=1;jettySize=auto;html=1;elbow=vertical;curved=0;" edge="1" parent="1">
          <mxGeometry relative="1" as="geometry">
            <mxPoint x="1246" y="311" as="sourcePoint" />
            <mxPoint x="1050.5" y="311" as="targetPoint" />
          </mxGeometry>
        </mxCell>
        <mxCell id="jVAV2KewldyQMuadTdJA-7" value="" style="html=1;points=[];perimeter=orthogonalPerimeter;outlineConnect=0;targetShapes=umlLifeline;portConstraint=eastwest;newEdgeStyle={&quot;edgeStyle&quot;:&quot;elbowEdgeStyle&quot;,&quot;elbow&quot;:&quot;vertical&quot;,&quot;curved&quot;:0,&quot;rounded&quot;:0};" vertex="1" parent="1">
          <mxGeometry x="1246" y="270" width="10" height="60" as="geometry" />
        </mxCell>
        <mxCell id="G6euud2GlvnLjBrIB7zK-1" value="ARB" style="shape=umlLifeline;perimeter=lifelinePerimeter;whiteSpace=wrap;html=1;container=0;dropTarget=0;collapsible=0;recursiveResize=0;outlineConnect=0;portConstraint=eastwest;newEdgeStyle={&quot;edgeStyle&quot;:&quot;elbowEdgeStyle&quot;,&quot;elbow&quot;:&quot;vertical&quot;,&quot;curved&quot;:0,&quot;rounded&quot;:0};" vertex="1" parent="1">
          <mxGeometry x="70" y="30" width="100" height="300" as="geometry" />
        </mxCell>
        <mxCell id="G6euud2GlvnLjBrIB7zK-2" value="" style="html=1;points=[];perimeter=orthogonalPerimeter;outlineConnect=0;targetShapes=umlLifeline;portConstraint=eastwest;newEdgeStyle={&quot;edgeStyle&quot;:&quot;elbowEdgeStyle&quot;,&quot;elbow&quot;:&quot;vertical&quot;,&quot;curved&quot;:0,&quot;rounded&quot;:0};" vertex="1" parent="G6euud2GlvnLjBrIB7zK-1">
          <mxGeometry x="45" y="70" width="10" height="80" as="geometry" />
        </mxCell>
        <mxCell id="G6euud2GlvnLjBrIB7zK-3" value="VIBAN Notification" style="html=1;verticalAlign=bottom;startArrow=oval;endArrow=block;startSize=8;edgeStyle=elbowEdgeStyle;elbow=vertical;curved=0;rounded=0;" edge="1" parent="G6euud2GlvnLjBrIB7zK-1" target="G6euud2GlvnLjBrIB7zK-2">
          <mxGeometry relative="1" as="geometry">
            <mxPoint x="-15" y="70" as="sourcePoint" />
          </mxGeometry>
        </mxCell>
        <mxCell id="G6euud2GlvnLjBrIB7zK-4" value="B2B" style="shape=umlLifeline;perimeter=lifelinePerimeter;whiteSpace=wrap;html=1;container=0;dropTarget=0;collapsible=0;recursiveResize=0;outlineConnect=0;portConstraint=eastwest;newEdgeStyle={&quot;edgeStyle&quot;:&quot;elbowEdgeStyle&quot;,&quot;elbow&quot;:&quot;vertical&quot;,&quot;curved&quot;:0,&quot;rounded&quot;:0};" vertex="1" parent="1">
          <mxGeometry x="250" y="30" width="100" height="300" as="geometry" />
        </mxCell>
        <mxCell id="G6euud2GlvnLjBrIB7zK-5" value="" style="html=1;points=[];perimeter=orthogonalPerimeter;outlineConnect=0;targetShapes=umlLifeline;portConstraint=eastwest;newEdgeStyle={&quot;edgeStyle&quot;:&quot;elbowEdgeStyle&quot;,&quot;elbow&quot;:&quot;vertical&quot;,&quot;curved&quot;:0,&quot;rounded&quot;:0};" vertex="1" parent="G6euud2GlvnLjBrIB7zK-4">
          <mxGeometry x="45" y="70" width="10" height="80" as="geometry" />
        </mxCell>
        <mxCell id="G6euud2GlvnLjBrIB7zK-7" style="edgeStyle=elbowEdgeStyle;rounded=0;orthogonalLoop=1;jettySize=auto;html=1;elbow=vertical;curved=0;" edge="1" parent="1">
          <mxGeometry relative="1" as="geometry">
            <mxPoint x="125" y="111" as="sourcePoint" />
            <mxPoint x="299.5" y="111" as="targetPoint" />
          </mxGeometry>
        </mxCell>
        <mxCell id="G6euud2GlvnLjBrIB7zK-8" style="edgeStyle=elbowEdgeStyle;rounded=0;orthogonalLoop=1;jettySize=auto;html=1;elbow=vertical;curved=0;" edge="1" parent="1">
          <mxGeometry relative="1" as="geometry">
            <mxPoint x="305" y="127" as="sourcePoint" />
            <mxPoint x="440.5" y="127" as="targetPoint" />
          </mxGeometry>
        </mxCell>
        <mxCell id="sOdplfueF10rCjUXzpc5-2" style="edgeStyle=elbowEdgeStyle;rounded=0;orthogonalLoop=1;jettySize=auto;html=1;elbow=vertical;curved=0;" edge="1" parent="1">
          <mxGeometry relative="1" as="geometry">
            <mxPoint x="1046" y="321" as="sourcePoint" />
            <mxPoint x="910.5" y="321" as="targetPoint" />
          </mxGeometry>
        </mxCell>
        <mxCell id="sOdplfueF10rCjUXzpc5-6" style="edgeStyle=elbowEdgeStyle;rounded=0;orthogonalLoop=1;jettySize=auto;html=1;elbow=vertical;curved=0;" edge="1" parent="1">
          <mxGeometry relative="1" as="geometry">
            <mxPoint x="906" y="339" as="sourcePoint" />
            <mxPoint x="620.5" y="339" as="targetPoint" />
          </mxGeometry>
        </mxCell>
        <mxCell id="lsNd1uUvVWdKnS4iPvvH-3" style="edgeStyle=elbowEdgeStyle;rounded=0;orthogonalLoop=1;jettySize=auto;html=1;elbow=vertical;curved=0;" edge="1" parent="1">
          <mxGeometry relative="1" as="geometry">
            <mxPoint x="620" y="408.5" as="sourcePoint" />
            <mxPoint x="754" y="408.5" as="targetPoint" />
          </mxGeometry>
        </mxCell>
        <mxCell id="lsNd1uUvVWdKnS4iPvvH-4" value="produce response event" style="edgeLabel;html=1;align=center;verticalAlign=middle;resizable=0;points=[];" vertex="1" connectable="0" parent="lsNd1uUvVWdKnS4iPvvH-3">
          <mxGeometry x="-0.4038" y="3" relative="1" as="geometry">
            <mxPoint x="21" y="-6" as="offset" />
          </mxGeometry>
        </mxCell>
        <mxCell id="VXgVMR-ZYUzrbPRZvhqL-1" value="" style="shape=cylinder3;whiteSpace=wrap;html=1;boundedLbl=1;backgroundOutline=1;size=15;" vertex="1" parent="1">
          <mxGeometry x="750" y="370" width="60" height="80" as="geometry" />
        </mxCell>
      </root>
    </mxGraphModel>
  </diagram>
  <diagram id="IJ_qSYI3_cwwqdmKB3CX" name="Page-2">
    <mxGraphModel dx="2029" dy="1174" grid="1" gridSize="10" guides="1" tooltips="1" connect="1" arrows="1" fold="1" page="1" pageScale="1" pageWidth="4203" pageHeight="1519" math="0" shadow="0">
      <root>
        <mxCell id="0" />
        <mxCell id="1" parent="0" />
        <mxCell id="Sybo8kKToN_YBvV8aIou-1" value="JIRA" style="shape=umlLifeline;perimeter=lifelinePerimeter;whiteSpace=wrap;html=1;container=0;dropTarget=0;collapsible=0;recursiveResize=0;outlineConnect=0;portConstraint=eastwest;newEdgeStyle={&quot;edgeStyle&quot;:&quot;elbowEdgeStyle&quot;,&quot;elbow&quot;:&quot;vertical&quot;,&quot;curved&quot;:0,&quot;rounded&quot;:0};" vertex="1" parent="1">
          <mxGeometry x="40" y="40" width="100" height="450" as="geometry" />
        </mxCell>
        <mxCell id="Sybo8kKToN_YBvV8aIou-2" value="" style="html=1;points=[];perimeter=orthogonalPerimeter;outlineConnect=0;targetShapes=umlLifeline;portConstraint=eastwest;newEdgeStyle={&quot;edgeStyle&quot;:&quot;elbowEdgeStyle&quot;,&quot;elbow&quot;:&quot;vertical&quot;,&quot;curved&quot;:0,&quot;rounded&quot;:0};" vertex="1" parent="Sybo8kKToN_YBvV8aIou-1">
          <mxGeometry x="45" y="70" width="10" height="240" as="geometry" />
        </mxCell>
        <mxCell id="Sybo8kKToN_YBvV8aIou-3" value="Collection create IBAN" style="html=1;verticalAlign=bottom;startArrow=oval;endArrow=block;startSize=8;edgeStyle=elbowEdgeStyle;elbow=vertical;curved=0;rounded=0;" edge="1" parent="Sybo8kKToN_YBvV8aIou-1" target="Sybo8kKToN_YBvV8aIou-2">
          <mxGeometry relative="1" as="geometry">
            <mxPoint x="-15" y="70" as="sourcePoint" />
          </mxGeometry>
        </mxCell>
        <mxCell id="Sybo8kKToN_YBvV8aIou-4" value="InternalGateway" style="shape=umlLifeline;perimeter=lifelinePerimeter;whiteSpace=wrap;html=1;container=0;dropTarget=0;collapsible=0;recursiveResize=0;outlineConnect=0;portConstraint=eastwest;newEdgeStyle={&quot;edgeStyle&quot;:&quot;elbowEdgeStyle&quot;,&quot;elbow&quot;:&quot;vertical&quot;,&quot;curved&quot;:0,&quot;rounded&quot;:0};" vertex="1" parent="1">
          <mxGeometry x="220" y="40" width="100" height="470" as="geometry" />
        </mxCell>
        <mxCell id="Sybo8kKToN_YBvV8aIou-5" value="" style="html=1;points=[];perimeter=orthogonalPerimeter;outlineConnect=0;targetShapes=umlLifeline;portConstraint=eastwest;newEdgeStyle={&quot;edgeStyle&quot;:&quot;elbowEdgeStyle&quot;,&quot;elbow&quot;:&quot;vertical&quot;,&quot;curved&quot;:0,&quot;rounded&quot;:0};" vertex="1" parent="Sybo8kKToN_YBvV8aIou-4">
          <mxGeometry x="45" y="80" width="10" height="310" as="geometry" />
        </mxCell>
        <mxCell id="Sybo8kKToN_YBvV8aIou-9" value="external gatway" style="shape=umlLifeline;perimeter=lifelinePerimeter;whiteSpace=wrap;html=1;container=0;dropTarget=0;collapsible=0;recursiveResize=0;outlineConnect=0;portConstraint=eastwest;newEdgeStyle={&quot;edgeStyle&quot;:&quot;elbowEdgeStyle&quot;,&quot;elbow&quot;:&quot;vertical&quot;,&quot;curved&quot;:0,&quot;rounded&quot;:0};" vertex="1" parent="1">
          <mxGeometry x="660" y="40" width="100" height="300" as="geometry" />
        </mxCell>
        <mxCell id="Sybo8kKToN_YBvV8aIou-10" value="" style="html=1;points=[];perimeter=orthogonalPerimeter;outlineConnect=0;targetShapes=umlLifeline;portConstraint=eastwest;newEdgeStyle={&quot;edgeStyle&quot;:&quot;elbowEdgeStyle&quot;,&quot;elbow&quot;:&quot;vertical&quot;,&quot;curved&quot;:0,&quot;rounded&quot;:0};" vertex="1" parent="Sybo8kKToN_YBvV8aIou-9">
          <mxGeometry x="45" y="130" width="10" height="120" as="geometry" />
        </mxCell>
        <mxCell id="Sybo8kKToN_YBvV8aIou-11" value="ARB" style="shape=umlLifeline;perimeter=lifelinePerimeter;whiteSpace=wrap;html=1;container=0;dropTarget=0;collapsible=0;recursiveResize=0;outlineConnect=0;portConstraint=eastwest;newEdgeStyle={&quot;edgeStyle&quot;:&quot;elbowEdgeStyle&quot;,&quot;elbow&quot;:&quot;vertical&quot;,&quot;curved&quot;:0,&quot;rounded&quot;:0};" vertex="1" parent="1">
          <mxGeometry x="800" y="40" width="100" height="300" as="geometry" />
        </mxCell>
        <mxCell id="Sybo8kKToN_YBvV8aIou-12" value="" style="html=1;points=[];perimeter=orthogonalPerimeter;outlineConnect=0;targetShapes=umlLifeline;portConstraint=eastwest;newEdgeStyle={&quot;edgeStyle&quot;:&quot;elbowEdgeStyle&quot;,&quot;elbow&quot;:&quot;vertical&quot;,&quot;curved&quot;:0,&quot;rounded&quot;:0};" vertex="1" parent="Sybo8kKToN_YBvV8aIou-11">
          <mxGeometry x="45" y="160" width="10" height="50" as="geometry" />
        </mxCell>
        <mxCell id="ndIDwV3U8ZAJR7c59hbP-12" style="edgeStyle=elbowEdgeStyle;rounded=0;orthogonalLoop=1;jettySize=auto;html=1;elbow=vertical;curved=0;" edge="1" parent="Sybo8kKToN_YBvV8aIou-11" source="Sybo8kKToN_YBvV8aIou-12" target="Sybo8kKToN_YBvV8aIou-11">
          <mxGeometry relative="1" as="geometry" />
        </mxCell>
        <mxCell id="Sybo8kKToN_YBvV8aIou-14" style="edgeStyle=elbowEdgeStyle;rounded=0;orthogonalLoop=1;jettySize=auto;html=1;elbow=vertical;curved=0;" edge="1" parent="1">
          <mxGeometry relative="1" as="geometry">
            <mxPoint x="95" y="147" as="sourcePoint" />
            <mxPoint x="269.5" y="147" as="targetPoint" />
          </mxGeometry>
        </mxCell>
        <mxCell id="Sybo8kKToN_YBvV8aIou-15" value="GenerateVIBAN" style="edgeLabel;html=1;align=center;verticalAlign=middle;resizable=0;points=[];" vertex="1" connectable="0" parent="Sybo8kKToN_YBvV8aIou-14">
          <mxGeometry x="-0.2894" y="9" relative="1" as="geometry">
            <mxPoint x="23" as="offset" />
          </mxGeometry>
        </mxCell>
        <mxCell id="ndIDwV3U8ZAJR7c59hbP-1" value="VIBAN adapter" style="shape=umlLifeline;perimeter=lifelinePerimeter;whiteSpace=wrap;html=1;container=0;dropTarget=0;collapsible=0;recursiveResize=0;outlineConnect=0;portConstraint=eastwest;newEdgeStyle={&quot;edgeStyle&quot;:&quot;elbowEdgeStyle&quot;,&quot;elbow&quot;:&quot;vertical&quot;,&quot;curved&quot;:0,&quot;rounded&quot;:0};" vertex="1" parent="1">
          <mxGeometry x="490" y="40" width="100" height="490" as="geometry" />
        </mxCell>
        <mxCell id="ndIDwV3U8ZAJR7c59hbP-2" value="" style="html=1;points=[];perimeter=orthogonalPerimeter;outlineConnect=0;targetShapes=umlLifeline;portConstraint=eastwest;newEdgeStyle={&quot;edgeStyle&quot;:&quot;elbowEdgeStyle&quot;,&quot;elbow&quot;:&quot;vertical&quot;,&quot;curved&quot;:0,&quot;rounded&quot;:0};" vertex="1" parent="ndIDwV3U8ZAJR7c59hbP-1">
          <mxGeometry x="45" y="80" width="10" height="310" as="geometry" />
        </mxCell>
        <mxCell id="ndIDwV3U8ZAJR7c59hbP-6" style="edgeStyle=elbowEdgeStyle;rounded=0;orthogonalLoop=1;jettySize=auto;html=1;elbow=vertical;curved=0;" edge="1" parent="1">
          <mxGeometry relative="1" as="geometry">
            <mxPoint x="275" y="144" as="sourcePoint" />
            <mxPoint x="539.5" y="144" as="targetPoint" />
          </mxGeometry>
        </mxCell>
        <mxCell id="ndIDwV3U8ZAJR7c59hbP-7" value="GenerateVIBAN" style="edgeLabel;html=1;align=center;verticalAlign=middle;resizable=0;points=[];" vertex="1" connectable="0" parent="ndIDwV3U8ZAJR7c59hbP-6">
          <mxGeometry x="-0.3119" y="5" relative="1" as="geometry">
            <mxPoint as="offset" />
          </mxGeometry>
        </mxCell>
        <mxCell id="ndIDwV3U8ZAJR7c59hbP-8" style="edgeStyle=elbowEdgeStyle;rounded=0;orthogonalLoop=1;jettySize=auto;html=1;elbow=vertical;curved=0;" edge="1" parent="1">
          <mxGeometry relative="1" as="geometry">
            <mxPoint x="535" y="259" as="sourcePoint" />
            <mxPoint x="269.5" y="259" as="targetPoint" />
          </mxGeometry>
        </mxCell>
        <mxCell id="ndIDwV3U8ZAJR7c59hbP-9" style="edgeStyle=elbowEdgeStyle;rounded=0;orthogonalLoop=1;jettySize=auto;html=1;elbow=vertical;curved=0;" edge="1" parent="1">
          <mxGeometry relative="1" as="geometry">
            <mxPoint x="265" y="271" as="sourcePoint" />
            <mxPoint x="89.5" y="271" as="targetPoint" />
          </mxGeometry>
        </mxCell>
        <mxCell id="ndIDwV3U8ZAJR7c59hbP-10" style="edgeStyle=elbowEdgeStyle;rounded=0;orthogonalLoop=1;jettySize=auto;html=1;elbow=vertical;curved=0;" edge="1" parent="1">
          <mxGeometry relative="1" as="geometry">
            <mxPoint x="545" y="190" as="sourcePoint" />
            <mxPoint x="709.5" y="190" as="targetPoint" />
          </mxGeometry>
        </mxCell>
        <mxCell id="ndIDwV3U8ZAJR7c59hbP-11" value="GenerateVIBAN" style="edgeLabel;html=1;align=center;verticalAlign=middle;resizable=0;points=[];" vertex="1" connectable="0" parent="ndIDwV3U8ZAJR7c59hbP-10">
          <mxGeometry x="-0.3921" y="5" relative="1" as="geometry">
            <mxPoint as="offset" />
          </mxGeometry>
        </mxCell>
        <mxCell id="ndIDwV3U8ZAJR7c59hbP-13" value="" style="edgeStyle=elbowEdgeStyle;rounded=0;orthogonalLoop=1;jettySize=auto;html=1;elbow=vertical;curved=0;" edge="1" parent="1" source="Sybo8kKToN_YBvV8aIou-10" target="Sybo8kKToN_YBvV8aIou-12">
          <mxGeometry relative="1" as="geometry">
            <mxPoint x="715" y="205" as="sourcePoint" />
            <mxPoint x="850" y="205" as="targetPoint" />
          </mxGeometry>
        </mxCell>
        <mxCell id="ndIDwV3U8ZAJR7c59hbP-17" value="GenerateVIBAN" style="edgeLabel;html=1;align=center;verticalAlign=middle;resizable=0;points=[];" vertex="1" connectable="0" parent="ndIDwV3U8ZAJR7c59hbP-13">
          <mxGeometry x="-0.4462" y="1" relative="1" as="geometry">
            <mxPoint x="29" y="-4" as="offset" />
          </mxGeometry>
        </mxCell>
        <mxCell id="ndIDwV3U8ZAJR7c59hbP-14" style="edgeStyle=elbowEdgeStyle;rounded=0;orthogonalLoop=1;jettySize=auto;html=1;elbow=vertical;curved=0;" edge="1" parent="1">
          <mxGeometry relative="1" as="geometry">
            <mxPoint x="845" y="243" as="sourcePoint" />
            <mxPoint x="709.5" y="243" as="targetPoint" />
          </mxGeometry>
        </mxCell>
        <mxCell id="ndIDwV3U8ZAJR7c59hbP-15" style="edgeStyle=elbowEdgeStyle;rounded=0;orthogonalLoop=1;jettySize=auto;html=1;elbow=vertical;curved=0;" edge="1" parent="1">
          <mxGeometry relative="1" as="geometry">
            <mxPoint x="705" y="246" as="sourcePoint" />
            <mxPoint x="539.5" y="246" as="targetPoint" />
          </mxGeometry>
        </mxCell>
        <mxCell id="ndIDwV3U8ZAJR7c59hbP-18" value="KAFKA" style="shape=umlLifeline;perimeter=lifelinePerimeter;whiteSpace=wrap;html=1;container=0;dropTarget=0;collapsible=0;recursiveResize=0;outlineConnect=0;portConstraint=eastwest;newEdgeStyle={&quot;edgeStyle&quot;:&quot;elbowEdgeStyle&quot;,&quot;elbow&quot;:&quot;vertical&quot;,&quot;curved&quot;:0,&quot;rounded&quot;:0};" vertex="1" parent="1">
          <mxGeometry x="1040" y="40" width="100" height="490" as="geometry" />
        </mxCell>
        <mxCell id="ndIDwV3U8ZAJR7c59hbP-19" value="" style="html=1;points=[];perimeter=orthogonalPerimeter;outlineConnect=0;targetShapes=umlLifeline;portConstraint=eastwest;newEdgeStyle={&quot;edgeStyle&quot;:&quot;elbowEdgeStyle&quot;,&quot;elbow&quot;:&quot;vertical&quot;,&quot;curved&quot;:0,&quot;rounded&quot;:0};" vertex="1" parent="ndIDwV3U8ZAJR7c59hbP-18">
          <mxGeometry x="45" y="230" width="10" height="110" as="geometry" />
        </mxCell>
        <mxCell id="ndIDwV3U8ZAJR7c59hbP-24" value="" style="html=1;points=[];perimeter=orthogonalPerimeter;outlineConnect=0;targetShapes=umlLifeline;portConstraint=eastwest;newEdgeStyle={&quot;edgeStyle&quot;:&quot;elbowEdgeStyle&quot;,&quot;elbow&quot;:&quot;vertical&quot;,&quot;curved&quot;:0,&quot;rounded&quot;:0};" vertex="1" parent="ndIDwV3U8ZAJR7c59hbP-18">
          <mxGeometry x="45" y="60" width="10" height="110" as="geometry" />
        </mxCell>
        <mxCell id="ndIDwV3U8ZAJR7c59hbP-20" style="edgeStyle=elbowEdgeStyle;rounded=0;orthogonalLoop=1;jettySize=auto;html=1;elbow=vertical;curved=0;" edge="1" parent="1">
          <mxGeometry relative="1" as="geometry">
            <mxPoint x="545" y="319" as="sourcePoint" />
            <mxPoint x="1089.5" y="319" as="targetPoint" />
          </mxGeometry>
        </mxCell>
        <mxCell id="ndIDwV3U8ZAJR7c59hbP-22" value="Update VIBAN response" style="edgeLabel;html=1;align=center;verticalAlign=middle;resizable=0;points=[];" vertex="1" connectable="0" parent="ndIDwV3U8ZAJR7c59hbP-20">
          <mxGeometry x="-0.7612" y="1" relative="1" as="geometry">
            <mxPoint x="180" as="offset" />
          </mxGeometry>
        </mxCell>
        <mxCell id="ndIDwV3U8ZAJR7c59hbP-23" style="edgeStyle=elbowEdgeStyle;rounded=0;orthogonalLoop=1;jettySize=auto;html=1;elbow=vertical;curved=0;" edge="1" parent="1" source="ndIDwV3U8ZAJR7c59hbP-2" target="ndIDwV3U8ZAJR7c59hbP-18">
          <mxGeometry relative="1" as="geometry">
            <Array as="points">
              <mxPoint x="920" y="150" />
            </Array>
          </mxGeometry>
        </mxCell>
        <mxCell id="ndIDwV3U8ZAJR7c59hbP-25" value="initiate VIBAN Request" style="edgeLabel;html=1;align=center;verticalAlign=middle;resizable=0;points=[];" vertex="1" connectable="0" parent="ndIDwV3U8ZAJR7c59hbP-23">
          <mxGeometry x="-0.214" y="4" relative="1" as="geometry">
            <mxPoint as="offset" />
          </mxGeometry>
        </mxCell>
        <mxCell id="ndIDwV3U8ZAJR7c59hbP-26" value="VIBAN PRE-PROcessor" style="shape=umlLifeline;perimeter=lifelinePerimeter;whiteSpace=wrap;html=1;container=0;dropTarget=0;collapsible=0;recursiveResize=0;outlineConnect=0;portConstraint=eastwest;newEdgeStyle={&quot;edgeStyle&quot;:&quot;elbowEdgeStyle&quot;,&quot;elbow&quot;:&quot;vertical&quot;,&quot;curved&quot;:0,&quot;rounded&quot;:0};" vertex="1" parent="1">
          <mxGeometry x="1260" y="40" width="100" height="490" as="geometry" />
        </mxCell>
        <mxCell id="ndIDwV3U8ZAJR7c59hbP-27" value="" style="html=1;points=[];perimeter=orthogonalPerimeter;outlineConnect=0;targetShapes=umlLifeline;portConstraint=eastwest;newEdgeStyle={&quot;edgeStyle&quot;:&quot;elbowEdgeStyle&quot;,&quot;elbow&quot;:&quot;vertical&quot;,&quot;curved&quot;:0,&quot;rounded&quot;:0};" vertex="1" parent="ndIDwV3U8ZAJR7c59hbP-26">
          <mxGeometry x="45" y="230" width="10" height="110" as="geometry" />
        </mxCell>
        <mxCell id="ndIDwV3U8ZAJR7c59hbP-28" value="" style="html=1;points=[];perimeter=orthogonalPerimeter;outlineConnect=0;targetShapes=umlLifeline;portConstraint=eastwest;newEdgeStyle={&quot;edgeStyle&quot;:&quot;elbowEdgeStyle&quot;,&quot;elbow&quot;:&quot;vertical&quot;,&quot;curved&quot;:0,&quot;rounded&quot;:0};" vertex="1" parent="ndIDwV3U8ZAJR7c59hbP-26">
          <mxGeometry x="45" y="60" width="10" height="110" as="geometry" />
        </mxCell>
        <mxCell id="30BYfkkmihjAe2QoclqA-1" value="" style="edgeStyle=orthogonalEdgeStyle;html=1;align=left;spacingLeft=2;endArrow=block;rounded=0;entryX=-0.24;entryY=0.4;entryDx=0;entryDy=0;entryPerimeter=0;" edge="1" parent="ndIDwV3U8ZAJR7c59hbP-26" source="30BYfkkmihjAe2QoclqA-3">
          <mxGeometry x="0.0142" y="14" relative="1" as="geometry">
            <mxPoint x="55" y="260" as="sourcePoint" />
            <Array as="points">
              <mxPoint x="100" y="260" />
              <mxPoint x="100" y="284" />
            </Array>
            <mxPoint as="offset" />
            <mxPoint x="56.59999999999991" y="284" as="targetPoint" />
          </mxGeometry>
        </mxCell>
        <mxCell id="30BYfkkmihjAe2QoclqA-2" value="if type = response and status = success&amp;nbsp;" style="edgeLabel;html=1;align=center;verticalAlign=middle;resizable=0;points=[];" vertex="1" connectable="0" parent="30BYfkkmihjAe2QoclqA-1">
          <mxGeometry x="0.4706" y="-6" relative="1" as="geometry">
            <mxPoint x="81" y="-8" as="offset" />
          </mxGeometry>
        </mxCell>
        <mxCell id="30BYfkkmihjAe2QoclqA-3" value="&lt;span style=&quot;color: rgba(0, 0, 0, 0); font-family: monospace; font-size: 0px; text-align: start;&quot;&gt;%3CmxGraphModel%3E%3Croot%3E%3CmxCell%20id%3D%220%22%2F%3E%3CmxCell%20id%3D%221%22%20parent%3D%220%22%2F%3E%3CmxCell%20id%3D%222%22%20value%3D%22move%20to%20ivr%20stage%26amp%3Bnbsp%3B%22%20style%3D%22edgeStyle%3DorthogonalEdgeStyle%3Bhtml%3D1%3Balign%3Dleft%3BspacingLeft%3D2%3BendArrow%3Dblock%3Brounded%3D0%3BentryX%3D-0.24%3BentryY%3D0.4%3BentryDx%3D0%3BentryDy%3D0%3BentryPerimeter%3D0%3B%22%20edge%3D%221%22%20parent%3D%221%22%3E%3CmxGeometry%20x%3D%220.0142%22%20y%3D%2214%22%20relative%3D%221%22%20as%3D%22geometry%22%3E%3CmxPoint%20x%3D%22135%22%20y%3D%22260%22%20as%3D%22sourcePoint%22%2F%3E%3CArray%20as%3D%22points%22%3E%3CmxPoint%20x%3D%22180%22%20y%3D%22260%22%2F%3E%3CmxPoint%20x%3D%22180%22%20y%3D%22284%22%2F%3E%3C%2FArray%3E%3CmxPoint%20as%3D%22offset%22%2F%3E%3CmxPoint%20x%3D%22136.5999999999999%22%20y%3D%22284%22%20as%3D%22targetPoint%22%2F%3E%3C%2FmxGeometry%3E%3C%2FmxCell%3E%3C%2Froot%3E%3C%2FmxGraphModel%3E&lt;/span&gt;" style="html=1;points=[];perimeter=orthogonalPerimeter;outlineConnect=0;targetShapes=umlLifeline;portConstraint=eastwest;newEdgeStyle={&quot;edgeStyle&quot;:&quot;elbowEdgeStyle&quot;,&quot;elbow&quot;:&quot;vertical&quot;,&quot;curved&quot;:0,&quot;rounded&quot;:0};" vertex="1" parent="ndIDwV3U8ZAJR7c59hbP-26">
          <mxGeometry x="50" y="270" width="10" height="30" as="geometry" />
        </mxCell>
        <mxCell id="ndIDwV3U8ZAJR7c59hbP-29" value="Notification Engine" style="shape=umlLifeline;perimeter=lifelinePerimeter;whiteSpace=wrap;html=1;container=0;dropTarget=0;collapsible=0;recursiveResize=0;outlineConnect=0;portConstraint=eastwest;newEdgeStyle={&quot;edgeStyle&quot;:&quot;elbowEdgeStyle&quot;,&quot;elbow&quot;:&quot;vertical&quot;,&quot;curved&quot;:0,&quot;rounded&quot;:0};" vertex="1" parent="1">
          <mxGeometry x="1500" y="40" width="100" height="490" as="geometry" />
        </mxCell>
        <mxCell id="ndIDwV3U8ZAJR7c59hbP-30" value="" style="html=1;points=[];perimeter=orthogonalPerimeter;outlineConnect=0;targetShapes=umlLifeline;portConstraint=eastwest;newEdgeStyle={&quot;edgeStyle&quot;:&quot;elbowEdgeStyle&quot;,&quot;elbow&quot;:&quot;vertical&quot;,&quot;curved&quot;:0,&quot;rounded&quot;:0};" vertex="1" parent="ndIDwV3U8ZAJR7c59hbP-29">
          <mxGeometry x="45" y="230" width="10" height="110" as="geometry" />
        </mxCell>
        <mxCell id="ndIDwV3U8ZAJR7c59hbP-31" value="" style="html=1;points=[];perimeter=orthogonalPerimeter;outlineConnect=0;targetShapes=umlLifeline;portConstraint=eastwest;newEdgeStyle={&quot;edgeStyle&quot;:&quot;elbowEdgeStyle&quot;,&quot;elbow&quot;:&quot;vertical&quot;,&quot;curved&quot;:0,&quot;rounded&quot;:0};" vertex="1" parent="ndIDwV3U8ZAJR7c59hbP-29">
          <mxGeometry x="45" y="60" width="10" height="110" as="geometry" />
        </mxCell>
        <mxCell id="ndIDwV3U8ZAJR7c59hbP-32" style="edgeStyle=elbowEdgeStyle;rounded=0;orthogonalLoop=1;jettySize=auto;html=1;elbow=vertical;curved=0;" edge="1" parent="1">
          <mxGeometry relative="1" as="geometry">
            <mxPoint x="1315" y="340" as="sourcePoint" />
            <mxPoint x="1549.5" y="340" as="targetPoint" />
          </mxGeometry>
        </mxCell>
        <mxCell id="30BYfkkmihjAe2QoclqA-4" value="send SMS" style="edgeLabel;html=1;align=center;verticalAlign=middle;resizable=0;points=[];" vertex="1" connectable="0" parent="ndIDwV3U8ZAJR7c59hbP-32">
          <mxGeometry x="-0.1557" y="1" relative="1" as="geometry">
            <mxPoint as="offset" />
          </mxGeometry>
        </mxCell>
        <mxCell id="ndIDwV3U8ZAJR7c59hbP-33" style="edgeStyle=elbowEdgeStyle;rounded=0;orthogonalLoop=1;jettySize=auto;html=1;elbow=vertical;curved=0;" edge="1" parent="1">
          <mxGeometry relative="1" as="geometry">
            <mxPoint x="1305" y="312" as="sourcePoint" />
            <mxPoint x="1089.5" y="312" as="targetPoint" />
          </mxGeometry>
        </mxCell>
        <mxCell id="ndIDwV3U8ZAJR7c59hbP-37" style="edgeStyle=elbowEdgeStyle;rounded=0;orthogonalLoop=1;jettySize=auto;html=1;elbow=vertical;curved=0;" edge="1" parent="1" source="ndIDwV3U8ZAJR7c59hbP-28" target="ndIDwV3U8ZAJR7c59hbP-18">
          <mxGeometry relative="1" as="geometry" />
        </mxCell>
        <mxCell id="ndIDwV3U8ZAJR7c59hbP-41" value="" style="shape=cylinder3;whiteSpace=wrap;html=1;boundedLbl=1;backgroundOutline=1;size=13;" vertex="1" parent="1">
          <mxGeometry x="1420" y="120" width="30" height="60" as="geometry" />
        </mxCell>
        <mxCell id="ndIDwV3U8ZAJR7c59hbP-42" style="edgeStyle=elbowEdgeStyle;rounded=0;orthogonalLoop=1;jettySize=auto;html=1;elbow=vertical;curved=0;entryX=0;entryY=0;entryDx=0;entryDy=38.5;entryPerimeter=0;" edge="1" parent="1" source="ndIDwV3U8ZAJR7c59hbP-28" target="ndIDwV3U8ZAJR7c59hbP-41">
          <mxGeometry relative="1" as="geometry" />
        </mxCell>
        <mxCell id="ndIDwV3U8ZAJR7c59hbP-43" value="insert&amp;nbsp;" style="edgeLabel;html=1;align=center;verticalAlign=middle;resizable=0;points=[];" vertex="1" connectable="0" parent="ndIDwV3U8ZAJR7c59hbP-42">
          <mxGeometry x="-0.4692" y="3" relative="1" as="geometry">
            <mxPoint x="17" y="-6" as="offset" />
          </mxGeometry>
        </mxCell>
        <mxCell id="30BYfkkmihjAe2QoclqA-5" value="" style="shape=cylinder3;whiteSpace=wrap;html=1;boundedLbl=1;backgroundOutline=1;size=13;" vertex="1" parent="1">
          <mxGeometry x="1420" y="245" width="30" height="60" as="geometry" />
        </mxCell>
        <mxCell id="30BYfkkmihjAe2QoclqA-6" style="edgeStyle=elbowEdgeStyle;rounded=0;orthogonalLoop=1;jettySize=auto;html=1;elbow=vertical;curved=0;entryX=0;entryY=0;entryDx=0;entryDy=38.5;entryPerimeter=0;" edge="1" parent="1" target="30BYfkkmihjAe2QoclqA-5">
          <mxGeometry relative="1" as="geometry">
            <mxPoint x="1315" y="284" as="sourcePoint" />
          </mxGeometry>
        </mxCell>
        <mxCell id="30BYfkkmihjAe2QoclqA-7" value="Update" style="edgeLabel;html=1;align=center;verticalAlign=middle;resizable=0;points=[];" vertex="1" connectable="0" parent="30BYfkkmihjAe2QoclqA-6">
          <mxGeometry x="-0.4692" y="3" relative="1" as="geometry">
            <mxPoint x="17" y="-6" as="offset" />
          </mxGeometry>
        </mxCell>
      </root>
    </mxGraphModel>
  </diagram>
</mxfile>
